<mxfile host="app.diagrams.net" agent="Mozilla/5.0 (Macintosh; Intel Mac OS X 10_15_7) AppleWebKit/537.36 (KHTML, like Gecko) Chrome/136.0.0.0 Safari/537.36" version="24.7.14">
  <diagram name="Page-1" id="oaaN-xaVI2owKklGk6Wr">
    <mxGraphModel dx="1226" dy="708" grid="1" gridSize="10" guides="1" tooltips="1" connect="1" arrows="1" fold="1" page="1" pageScale="1" pageWidth="827" pageHeight="1169" math="0" shadow="0">
      <root>
        <mxCell id="0" />
        <mxCell id="1" parent="0" />
        <mxCell id="gr2pJImmbowWirLbpPVM-4" value="" style="edgeStyle=orthogonalEdgeStyle;rounded=0;orthogonalLoop=1;jettySize=auto;html=1;" edge="1" parent="1" source="gr2pJImmbowWirLbpPVM-2" target="gr2pJImmbowWirLbpPVM-3">
          <mxGeometry relative="1" as="geometry" />
        </mxCell>
        <mxCell id="gr2pJImmbowWirLbpPVM-2" value="Evaluation Process" style="rounded=0;whiteSpace=wrap;html=1;" vertex="1" parent="1">
          <mxGeometry x="690" y="130" width="120" height="60" as="geometry" />
        </mxCell>
        <mxCell id="gr2pJImmbowWirLbpPVM-6" value="" style="edgeStyle=orthogonalEdgeStyle;rounded=0;orthogonalLoop=1;jettySize=auto;html=1;" edge="1" parent="1" source="gr2pJImmbowWirLbpPVM-3" target="gr2pJImmbowWirLbpPVM-5">
          <mxGeometry relative="1" as="geometry" />
        </mxCell>
        <mxCell id="gr2pJImmbowWirLbpPVM-3" value="Event Leaderboard&lt;div&gt;Google Sheet&lt;/div&gt;" style="shape=cylinder3;whiteSpace=wrap;html=1;boundedLbl=1;backgroundOutline=1;size=15;" vertex="1" parent="1">
          <mxGeometry x="690" y="290" width="120" height="60" as="geometry" />
        </mxCell>
        <mxCell id="gr2pJImmbowWirLbpPVM-5" value="Leaderboard" style="rounded=0;whiteSpace=wrap;html=1;" vertex="1" parent="1">
          <mxGeometry x="450" y="290" width="120" height="60" as="geometry" />
        </mxCell>
        <mxCell id="gr2pJImmbowWirLbpPVM-11" value="" style="edgeStyle=orthogonalEdgeStyle;rounded=0;orthogonalLoop=1;jettySize=auto;html=1;" edge="1" parent="1" source="gr2pJImmbowWirLbpPVM-8" target="gr2pJImmbowWirLbpPVM-10">
          <mxGeometry relative="1" as="geometry" />
        </mxCell>
        <mxCell id="gr2pJImmbowWirLbpPVM-8" value="User Submission" style="rounded=0;whiteSpace=wrap;html=1;" vertex="1" parent="1">
          <mxGeometry x="40" y="130" width="120" height="60" as="geometry" />
        </mxCell>
        <mxCell id="gr2pJImmbowWirLbpPVM-13" value="" style="edgeStyle=orthogonalEdgeStyle;rounded=0;orthogonalLoop=1;jettySize=auto;html=1;" edge="1" parent="1" source="gr2pJImmbowWirLbpPVM-10" target="gr2pJImmbowWirLbpPVM-12">
          <mxGeometry relative="1" as="geometry" />
        </mxCell>
        <mxCell id="gr2pJImmbowWirLbpPVM-10" value="&lt;div&gt;(OH Website)&lt;/div&gt;Salesforce" style="whiteSpace=wrap;html=1;rounded=0;" vertex="1" parent="1">
          <mxGeometry x="200" y="130" width="120" height="60" as="geometry" />
        </mxCell>
        <mxCell id="gr2pJImmbowWirLbpPVM-15" value="" style="edgeStyle=orthogonalEdgeStyle;rounded=0;orthogonalLoop=1;jettySize=auto;html=1;" edge="1" parent="1" source="gr2pJImmbowWirLbpPVM-12" target="gr2pJImmbowWirLbpPVM-14">
          <mxGeometry relative="1" as="geometry" />
        </mxCell>
        <mxCell id="gr2pJImmbowWirLbpPVM-12" value="Google Drive" style="whiteSpace=wrap;html=1;rounded=0;" vertex="1" parent="1">
          <mxGeometry x="360" y="130" width="120" height="60" as="geometry" />
        </mxCell>
        <mxCell id="gr2pJImmbowWirLbpPVM-16" value="" style="edgeStyle=orthogonalEdgeStyle;rounded=0;orthogonalLoop=1;jettySize=auto;html=1;" edge="1" parent="1" source="gr2pJImmbowWirLbpPVM-14" target="gr2pJImmbowWirLbpPVM-2">
          <mxGeometry relative="1" as="geometry" />
        </mxCell>
        <mxCell id="gr2pJImmbowWirLbpPVM-14" value="Evaluation Platform&lt;div&gt;(Cluster)&lt;/div&gt;" style="whiteSpace=wrap;html=1;rounded=0;" vertex="1" parent="1">
          <mxGeometry x="530" y="130" width="120" height="60" as="geometry" />
        </mxCell>
      </root>
    </mxGraphModel>
  </diagram>
</mxfile>
